/vscmnt/brussel_pixiu_data/_data_brussel/112/vsc11236/PredSimResults/SUBJ06opt3D/expIG/worker_11.mot
version=1
nRows=5
nColumns=50
inDegrees=yes
endheader
                time	         pelvis_tilt	         pelvis_list	     pelvis_rotation	           pelvis_tx	           pelvis_ty	           pelvis_tz	       hip_flexion_r	     hip_adduction_r	      hip_rotation_r	        knee_angle_r	       ankle_angle_r	         mtp_angle_r	       hip_flexion_l	     hip_adduction_l	      hip_rotation_l	        knee_angle_l	       ankle_angle_l	         mtp_angle_l	    lumbar_extension	      lumbar_bending	     lumbar_rotation	 ercspn_r/activation	 intobl_r/activation	 extobl_r/activation	    abd_r/activation	    add_r/activation	hamstrings_r/activation	bifemsh_r/activation	glut_max_r/activation	iliopsoas_r/activation	rect_fem_r/activation	  vasti_r/activation	gastroc_r/activation	 soleus_r/activation	tib_ant_r/activation	 ercspn_l/activation	 intobl_l/activation	 extobl_l/activation	    abd_l/activation	    add_l/activation	hamstrings_l/activation	bifemsh_l/activation	glut_max_l/activation	iliopsoas_l/activation	rect_fem_l/activation	  vasti_l/activation	gastroc_l/activation	 soleus_l/activation	tib_ant_l/activation	
          0.00000000	         -8.13745438	         -2.45864428	          8.71659199	          0.00000000	          0.91818361	         -0.00904191	         35.02367267	         -1.77278067	         -9.35497000	         -5.46647969	          2.48057601	          0.29981233	        -11.58001633	         -3.23621026	         -1.21828406	        -11.39627933	          3.69982526	         41.12900552	        -10.66161555	          1.94389828	         -7.75646385	          0.23491240	          0.14789841	          0.00999999	          0.00999999	          0.28088170	          0.17902050	          0.20403686	          0.00999999	          0.18438915	          0.00999999	          0.00999999	          0.01866952	          0.00999999	          0.73157422	          0.19198905	          0.00999999	          0.00999999	          0.02981832	          0.10497676	          0.03491297	          0.34025987	          0.02182310	          0.26004099	          0.03485512	          0.02255271	          0.41072962	          0.31691024	          0.01698757	
          0.01013497	         -8.08324452	         -2.42250641	          8.77825143	          0.01996334	          0.91574757	         -0.00842554	         35.45935596	         -1.66088935	         -9.31414941	         -8.12558449	          1.92666335	          0.30495047	        -12.76447602	         -3.42346926	         -1.57676996	        -11.35605941	          2.02564190	         42.92042143	        -10.31120887	          2.14927968	         -8.23011555	          0.20096599	          0.12652610	          0.00999999	          0.00999999	          0.49588859	          0.15913791	          0.17455217	          0.21557426	          0.15774369	          0.00999999	          0.00999999	          0.01597165	          0.01366364	          0.76393934	          0.23449195	          0.00999999	          0.00999999	          0.02550937	          0.33920542	          0.03469220	          0.37696234	          0.01866952	          0.53921774	          0.02981832	          0.01929369	          0.35137645	          0.27111459	          0.01453275	
          0.02026994	         -8.01371915	         -2.41842094	          8.80342077	          0.04012980	          0.91340122	         -0.00780005	         35.74418402	         -1.61182208	         -9.05583638	        -10.93386290	          1.50696177	          0.22950291	        -13.66744629	         -3.64352928	         -1.96339103	        -11.87360123	          0.37892938	         44.58677683	         -9.95079293	          2.39641337	         -8.65006130	          0.17192507	          0.10824224	          0.00999999	          0.11588457	          0.45838848	          0.14330010	          0.14932822	          0.23567458	          0.13494867	          0.00999999	          0.00999999	          0.01366364	          0.01168915	          0.85912417	          0.21238155	          0.00999999	          0.00999999	          0.02182310	          0.29018799	          0.05548327	          0.36939151	          0.01597165	          0.67977188	          0.02550937	          0.01650562	          0.30060021	          0.23193673	          0.01243267	
          0.03040491	         -7.93400071	         -2.42119729	          8.78609922	          0.06020336	          0.91130843	         -0.00704987	         35.95408867	         -1.54044953	         -8.83699433	        -13.64524249	          1.19839856	          0.19436535	        -14.15931120	         -3.88127710	         -2.35654081	        -13.14215122	         -1.21408428	         46.03707409	         -9.62180351	          2.64486682	         -9.01467119	          0.18959809	          0.09260051	          0.00999999	          0.18624013	          0.52846846	          0.12392859	          0.12774929	          0.37051222	          0.11544769	          0.00999999	          0.00999999	          0.01168915	          0.00999999	          0.91592840	          0.24346778	          0.00999999	          0.00999999	          0.01866952	          0.28348423	          0.04746557	          0.31732604	          0.01366364	          0.75802747	          0.02182310	          0.01412045	          0.25716147	          0.19842032	          0.01063607	
          0.04053988	         -7.84447893	         -2.42674077	          8.72975662	          0.07998022	          0.90960901	         -0.00617560	         36.17777091	         -1.44320207	         -8.62989473	        -16.37508571	          0.99817628	          0.13489263	        -14.17927871	         -4.13972402	         -2.74762380	        -15.23385401	         -2.75518020	         47.11509629	         -9.34684223	          2.89134524	         -9.32200552	          0.21173791	          0.07921912	          0.00999999	          0.24622499	          0.52662952	          0.10602008	          0.10928867	          0.50916998	          0.09876473	          0.00999999	          0.05219684	          0.00999999	          0.00999999	          0.91953525	          0.30532552	          0.00999999	          0.00999999	          0.01597165	          0.26086133	          0.04060648	          0.27147031	          0.01168915	          0.66855604	          0.01866952	          0.01207995	          0.21999993	          0.16974726	          0.00999999	
